<svg width="100%" viewBox="0 0 680 342" role="img" xmlns="http://www.w3.org/2000/svg" style=""><title style="fill:rgb(0, 0, 0);stroke:none;color:rgb(11, 11, 11);stroke-width:1px;stroke-linecap:butt;stroke-linejoin:miter;opacity:1;font-family:&quot;Anthropic Sans&quot;, -apple-system, &quot;system-ui&quot;, &quot;Segoe UI&quot;, sans-serif;font-size:16px;font-weight:400;text-anchor:start;dominant-baseline:auto">fastdiff stencil wordmark on dark background</title><desc style="fill:rgb(0, 0, 0);stroke:none;color:rgb(11, 11, 11);stroke-width:1px;stroke-linecap:butt;stroke-linejoin:miter;opacity:1;font-family:&quot;Anthropic Sans&quot;, -apple-system, &quot;system-ui&quot;, &quot;Segoe UI&quot;, sans-serif;font-size:16px;font-weight:400;text-anchor:start;dominant-baseline:auto">Custom upright geometric wordmark reading fastdiff, built from squared chamfered bowls and straight strokes with stencil breaks where crossbars meet stems. Off-white on near-black, with one teal accent segment in the shared double-f crossbar. Shown large and again at small size.</desc><defs><g id="wm2" fill="none" stroke="#E8E6E1" stroke-width="13" stroke-linecap="butt" stroke-linejoin="miter"><path d="M25 160 L25 79 L37 67 L44 67"/><path d="M5 107 L18 107"/><path d="M32 107 L47 107"/><path d="M116 119 L104 107 L82 107 L70 119 L70 141 L82 153 L104 153 L116 141"/><path d="M116 100 L116 160"/><path d="M188 113 L188 107 L142 107 L142 128 L159 128"/><path d="M171 128 L188 128 L188 153 L142 153 L142 147"/><path d="M232 75 L232 141 L244 153 L251 153"/><path d="M214 107 L225 107"/><path d="M239 107 L252 107"/><path d="M323 119 L311 107 L289 107 L277 119 L277 141 L289 153 L311 153 L323 141"/><path d="M323 68 L323 160"/><path d="M349 107 L349 153"/><path d="M342 72 L356 72 L356 86 L342 86 Z" fill="#E8E6E1" stroke="none"/><path d="M393 160 L393 79 L405 67 L412 67"/><path d="M431 160 L431 79 L443 67 L450 67"/><path d="M373 107 L386 107"/><path d="M400 107 L424 107" stroke="#4FD1C5"/><path d="M438 107 L453 107"/></g></defs><rect x="40" y="40" width="600" height="200" rx="12" fill="#101215" style="fill:rgb(16, 18, 21);stroke:none;color:rgb(11, 11, 11);stroke-width:1px;stroke-linecap:butt;stroke-linejoin:miter;opacity:1;font-family:&quot;Anthropic Sans&quot;, -apple-system, &quot;system-ui&quot;, &quot;Segoe UI&quot;, sans-serif;font-size:16px;font-weight:400;text-anchor:start;dominant-baseline:auto"/><use href="#wm2" transform="translate(111,27)" style="fill:rgb(0, 0, 0);stroke:none;color:rgb(11, 11, 11);stroke-width:1px;stroke-linecap:butt;stroke-linejoin:miter;opacity:1;font-family:&quot;Anthropic Sans&quot;, -apple-system, &quot;system-ui&quot;, &quot;Segoe UI&quot;, sans-serif;font-size:16px;font-weight:400;text-anchor:start;dominant-baseline:auto"/><rect x="40" y="252" width="180" height="70" rx="8" fill="#101215" style="fill:rgb(16, 18, 21);stroke:none;color:rgb(11, 11, 11);stroke-width:1px;stroke-linecap:butt;stroke-linejoin:miter;opacity:1;font-family:&quot;Anthropic Sans&quot;, -apple-system, &quot;system-ui&quot;, &quot;Segoe UI&quot;, sans-serif;font-size:16px;font-weight:400;text-anchor:start;dominant-baseline:auto"/><g transform="translate(56,262) scale(0.3)" style="fill:rgb(0, 0, 0);stroke:none;color:rgb(11, 11, 11);stroke-width:1px;stroke-linecap:butt;stroke-linejoin:miter;opacity:1;font-family:&quot;Anthropic Sans&quot;, -apple-system, &quot;system-ui&quot;, &quot;Segoe UI&quot;, sans-serif;font-size:16px;font-weight:400;text-anchor:start;dominant-baseline:auto"><use href="#wm2" style="fill:rgb(0, 0, 0);stroke:none;color:rgb(11, 11, 11);stroke-width:1px;stroke-linecap:butt;stroke-linejoin:miter;opacity:1;font-family:&quot;Anthropic Sans&quot;, -apple-system, &quot;system-ui&quot;, &quot;Segoe UI&quot;, sans-serif;font-size:16px;font-weight:400;text-anchor:start;dominant-baseline:auto"/></g><text x="234" y="293" font-family="'Helvetica Neue', Helvetica, Arial, sans-serif" font-size="12" fill="#8A9299" style="fill:rgb(138, 146, 153);stroke:none;color:rgb(11, 11, 11);stroke-width:1px;stroke-linecap:butt;stroke-linejoin:miter;opacity:1;font-family:&quot;Helvetica Neue&quot;, Helvetica, Arial, sans-serif;font-size:12px;font-weight:400;text-anchor:start;dominant-baseline:auto">32px tall</text></svg>